# MagicaVoxel @ Ephtracy

# group
o 

# material
mtllib bed.mtl
usemtl palette

# normals
vn -1 0 0
vn 1 0 0
vn 0 0 1
vn 0 0 -1
vn 0 -1 0
vn 0 1 0

# texcoords
vt 0.759766 0.5
vt 0.970703 0.5

# verts
v 1.4 2 -1.2
v 1.4 2 -1.3
v 1.4 2 -2.6
v 1.4 2 -2.7
v 1.4 2.2 -1.3
v 1.4 2.2 -2.6
v 1.4 2.3 -1.3
v 1.4 2.3 -2.6
v 1.4 2.4 -1.3
v 1.4 2.4 -2.6
v 1.4 2.6 -2.6
v 1.4 2.6 -2.7
v 1.4 2.7 -1.2
v 1.4 2.7 -1.3
v 1.6 2.4 -1.3
v 1.6 2.4 -1.6
v 1.6 2.4 -2.3
v 1.6 2.4 -2.5
v 1.6 2.5 -1.3
v 1.6 2.5 -1.6
v 1.6 2.5 -2.3
v 1.6 2.5 -2.5
v 2.1 2.4 -2.2
v 2.1 2.4 -2.3
v 2.1 2.5 -2.2
v 2.1 2.5 -2.3
v 2.4 2 -1.2
v 2.4 2 -1.3
v 2.4 2 -2.6
v 2.4 2 -2.7
v 2.4 2.2 -1.2
v 2.4 2.2 -1.3
v 2.4 2.2 -2.6
v 2.4 2.2 -2.7
v 1.5 2 -1.2
v 1.5 2 -1.3
v 1.5 2 -2.6
v 1.5 2 -2.7
v 1.5 2.2 -1.2
v 1.5 2.2 -1.3
v 1.5 2.2 -2.6
v 1.5 2.2 -2.7
v 2.3 2.4 -1.3
v 2.3 2.4 -1.6
v 2.3 2.4 -2.2
v 2.3 2.4 -2.5
v 2.3 2.5 -1.3
v 2.3 2.5 -1.6
v 2.3 2.5 -2.2
v 2.3 2.5 -2.5
v 2.5 2 -1.2
v 2.5 2 -1.3
v 2.5 2 -2.6
v 2.5 2 -2.7
v 2.5 2.2 -1.3
v 2.5 2.2 -2.6
v 2.5 2.3 -1.3
v 2.5 2.3 -2.6
v 2.5 2.4 -1.3
v 2.5 2.4 -2.6
v 2.5 2.6 -2.6
v 2.5 2.6 -2.7
v 2.5 2.7 -1.2
v 2.5 2.7 -1.3
v 1.4 2 -1.2
v 1.4 2.7 -1.2
v 1.5 2 -1.2
v 1.5 2.2 -1.2
v 2.4 2 -1.2
v 2.4 2.2 -1.2
v 2.5 2 -1.2
v 2.5 2.7 -1.2
v 2.1 2.4 -2.2
v 2.1 2.5 -2.2
v 2.3 2.4 -2.2
v 2.3 2.5 -2.2
v 1.6 2.4 -2.3
v 1.6 2.5 -2.3
v 2.1 2.4 -2.3
v 2.1 2.5 -2.3
v 1.4 2 -2.6
v 1.4 2.2 -2.6
v 1.4 2.4 -2.6
v 1.4 2.6 -2.6
v 1.5 2 -2.6
v 1.5 2.2 -2.6
v 2.4 2 -2.6
v 2.4 2.2 -2.6
v 2.5 2 -2.6
v 2.5 2.2 -2.6
v 2.5 2.4 -2.6
v 2.5 2.6 -2.6
v 1.4 2 -1.3
v 1.4 2.2 -1.3
v 1.4 2.4 -1.3
v 1.4 2.7 -1.3
v 1.5 2 -1.3
v 1.5 2.2 -1.3
v 1.6 2.4 -1.3
v 1.6 2.5 -1.3
v 2.3 2.4 -1.3
v 2.3 2.5 -1.3
v 2.4 2 -1.3
v 2.4 2.2 -1.3
v 2.5 2 -1.3
v 2.5 2.2 -1.3
v 2.5 2.4 -1.3
v 2.5 2.7 -1.3
v 1.6 2.4 -1.6
v 1.6 2.5 -1.6
v 2.3 2.4 -1.6
v 2.3 2.5 -1.6
v 1.6 2.4 -2.5
v 1.6 2.5 -2.5
v 2.3 2.4 -2.5
v 2.3 2.5 -2.5
v 1.4 2 -2.7
v 1.4 2.6 -2.7
v 1.5 2 -2.7
v 1.5 2.2 -2.7
v 2.4 2 -2.7
v 2.4 2.2 -2.7
v 2.5 2 -2.7
v 2.5 2.6 -2.7
v 1.4 2 -1.2
v 1.5 2 -1.2
v 2.4 2 -1.2
v 2.5 2 -1.2
v 1.4 2 -1.3
v 1.5 2 -1.3
v 2.4 2 -1.3
v 2.5 2 -1.3
v 1.4 2 -2.6
v 1.5 2 -2.6
v 2.4 2 -2.6
v 2.5 2 -2.6
v 1.4 2 -2.7
v 1.5 2 -2.7
v 2.4 2 -2.7
v 2.5 2 -2.7
v 1.5 2.2 -1.2
v 2.4 2.2 -1.2
v 1.4 2.2 -1.3
v 1.5 2.2 -1.3
v 2.4 2.2 -1.3
v 2.5 2.2 -1.3
v 1.4 2.2 -2.6
v 1.5 2.2 -2.6
v 2.4 2.2 -2.6
v 2.5 2.2 -2.6
v 1.5 2.2 -2.7
v 2.4 2.2 -2.7
v 1.4 2.4 -1.3
v 1.6 2.4 -1.3
v 2.3 2.4 -1.3
v 2.5 2.4 -1.3
v 1.6 2.4 -1.6
v 2.3 2.4 -1.6
v 2.1 2.4 -2.2
v 2.3 2.4 -2.2
v 1.6 2.4 -2.3
v 2.1 2.4 -2.3
v 1.6 2.4 -2.5
v 2.3 2.4 -2.5
v 1.4 2.4 -2.6
v 2.5 2.4 -2.6
v 1.6 2.5 -1.3
v 2.3 2.5 -1.3
v 1.6 2.5 -1.6
v 2.3 2.5 -1.6
v 2.1 2.5 -2.2
v 2.3 2.5 -2.2
v 1.6 2.5 -2.3
v 2.1 2.5 -2.3
v 1.6 2.5 -2.5
v 2.3 2.5 -2.5
v 1.4 2.6 -2.6
v 2.5 2.6 -2.6
v 1.4 2.6 -2.7
v 2.5 2.6 -2.7
v 1.4 2.7 -1.2
v 2.5 2.7 -1.2
v 1.4 2.7 -1.3
v 2.5 2.7 -1.3

# faces
f 5/2/1 2/2/1 1/2/1
f 6/2/1 4/2/1 3/2/1
f 7/2/1 5/2/1 1/2/1
f 7/2/1 6/2/1 5/2/1
f 8/2/1 4/2/1 6/2/1
f 8/2/1 6/2/1 7/2/1
f 9/2/1 7/2/1 1/2/1
f 9/1/1 8/1/1 7/1/1
f 10/2/1 4/2/1 8/2/1
f 10/1/1 8/1/1 9/1/1
f 11/2/1 4/2/1 10/2/1
f 12/2/1 4/2/1 11/2/1
f 13/2/1 9/2/1 1/2/1
f 14/2/1 9/2/1 13/2/1
f 19/2/1 16/2/1 15/2/1
f 20/2/1 16/2/1 19/2/1
f 21/1/1 18/1/1 17/1/1
f 22/1/1 18/1/1 21/1/1
f 25/1/1 24/1/1 23/1/1
f 26/1/1 24/1/1 25/1/1
f 31/2/1 28/2/1 27/2/1
f 32/2/1 28/2/1 31/2/1
f 33/2/1 30/2/1 29/2/1
f 34/2/1 30/2/1 33/2/1
f 35/2/2 36/2/2 39/2/2
f 39/2/2 36/2/2 40/2/2
f 37/2/2 38/2/2 41/2/2
f 41/2/2 38/2/2 42/2/2
f 43/2/2 44/2/2 47/2/2
f 47/2/2 44/2/2 48/2/2
f 45/1/2 46/1/2 49/1/2
f 49/1/2 46/1/2 50/1/2
f 51/2/2 52/2/2 55/2/2
f 53/2/2 54/2/2 56/2/2
f 51/2/2 55/2/2 57/2/2
f 55/2/2 56/2/2 57/2/2
f 56/2/2 54/2/2 58/2/2
f 57/2/2 56/2/2 58/2/2
f 51/2/2 57/2/2 59/2/2
f 57/1/2 58/1/2 59/1/2
f 58/2/2 54/2/2 60/2/2
f 59/1/2 58/1/2 60/1/2
f 60/2/2 54/2/2 61/2/2
f 61/2/2 54/2/2 62/2/2
f 51/2/2 59/2/2 63/2/2
f 63/2/2 59/2/2 64/2/2
f 67/2/3 66/2/3 65/2/3
f 68/2/3 66/2/3 67/2/3
f 70/2/3 66/2/3 68/2/3
f 71/2/3 70/2/3 69/2/3
f 72/2/3 66/2/3 70/2/3
f 72/2/3 70/2/3 71/2/3
f 75/1/3 74/1/3 73/1/3
f 76/1/3 74/1/3 75/1/3
f 79/1/3 78/1/3 77/1/3
f 80/1/3 78/1/3 79/1/3
f 85/2/3 82/2/3 81/2/3
f 86/2/3 82/2/3 85/2/3
f 89/2/3 88/2/3 87/2/3
f 90/2/3 88/2/3 89/2/3
f 91/2/3 84/2/3 83/2/3
f 92/2/3 84/2/3 91/2/3
f 93/2/4 94/2/4 97/2/4
f 97/2/4 94/2/4 98/2/4
f 95/2/4 96/2/4 99/2/4
f 99/2/4 96/2/4 100/2/4
f 100/2/4 96/2/4 102/2/4
f 103/2/4 104/2/4 105/2/4
f 105/2/4 104/2/4 106/2/4
f 101/2/4 102/2/4 107/2/4
f 102/2/4 96/2/4 108/2/4
f 107/2/4 102/2/4 108/2/4
f 109/2/4 110/2/4 111/2/4
f 111/2/4 110/2/4 112/2/4
f 113/1/4 114/1/4 115/1/4
f 115/1/4 114/1/4 116/1/4
f 117/2/4 118/2/4 119/2/4
f 119/2/4 118/2/4 120/2/4
f 120/2/4 118/2/4 122/2/4
f 121/2/4 122/2/4 123/2/4
f 122/2/4 118/2/4 124/2/4
f 123/2/4 122/2/4 124/2/4
f 129/2/5 126/2/5 125/2/5
f 130/2/5 126/2/5 129/2/5
f 131/2/5 128/2/5 127/2/5
f 132/2/5 128/2/5 131/2/5
f 137/2/5 134/2/5 133/2/5
f 138/2/5 134/2/5 137/2/5
f 139/2/5 136/2/5 135/2/5
f 140/2/5 136/2/5 139/2/5
f 144/2/5 142/2/5 141/2/5
f 145/2/5 142/2/5 144/2/5
f 147/2/5 144/2/5 143/2/5
f 147/2/5 146/2/5 145/2/5
f 147/2/5 145/2/5 144/2/5
f 148/2/5 146/2/5 147/2/5
f 149/2/5 146/2/5 148/2/5
f 150/2/5 146/2/5 149/2/5
f 151/2/5 149/2/5 148/2/5
f 152/2/5 149/2/5 151/2/5
f 153/1/6 154/1/6 157/1/6
f 155/1/6 156/1/6 158/1/6
f 157/1/6 158/1/6 159/1/6
f 158/1/6 156/1/6 160/1/6
f 159/1/6 158/1/6 160/1/6
f 153/1/6 157/1/6 161/1/6
f 157/1/6 159/1/6 161/1/6
f 161/1/6 159/1/6 162/1/6
f 153/1/6 161/1/6 163/1/6
f 160/1/6 156/1/6 164/1/6
f 153/1/6 163/1/6 165/1/6
f 163/1/6 164/1/6 165/1/6
f 164/1/6 156/1/6 166/1/6
f 165/1/6 164/1/6 166/1/6
f 167/2/6 168/2/6 169/2/6
f 169/2/6 168/2/6 170/2/6
f 171/1/6 172/1/6 174/1/6
f 173/1/6 174/1/6 175/1/6
f 174/1/6 172/1/6 176/1/6
f 175/1/6 174/1/6 176/1/6
f 177/2/6 178/2/6 179/2/6
f 179/2/6 178/2/6 180/2/6
f 181/2/6 182/2/6 183/2/6
f 183/2/6 182/2/6 184/2/6
