# MagicaVoxel @ Ephtracy

# group
o 

# material
mtllib buttom.mtl
usemtl palette

# normals
vn -1 0 0
vn 1 0 0
vn 0 0 1
vn 0 0 -1
vn 0 -1 0
vn 0 1 0

# texcoords
vt 0.306641 0.5
vt 0.447266 0.5
vt 0.587891 0.5
vt 0.728516 0.5
vt 0.861328 0.5
vt 0.990234 0.5

# verts
v 1.4 2.9 -1.7
v 1.4 2.9 -2.4
v 1.4 3 -1.7
v 1.4 3 -2.4
v 1.4 3.1 -1.8
v 1.4 3.1 -1.9
v 1.4 3.1 -2.2
v 1.4 3.1 -2.3
v 1.4 3.4 -1.8
v 1.4 3.4 -1.9
v 1.4 3.4 -2.2
v 1.4 3.4 -2.3
v 1.4 3.6 -1.7
v 1.4 3.6 -2.4
v 1.4 3.7 -1.7
v 1.4 3.7 -2.4
v 2.1 2.9 -1.7
v 2.1 2.9 -2.4
v 2.1 3.7 -1.7
v 2.1 3.7 -2.4
v 1.4 2.9 -1.7
v 1.4 3 -1.7
v 1.4 3.6 -1.7
v 1.4 3.7 -1.7
v 1.9 3.1 -1.7
v 1.9 3.4 -1.7
v 2 3 -1.7
v 2 3.1 -1.7
v 2 3.4 -1.7
v 2 3.6 -1.7
v 2.1 2.9 -1.7
v 2.1 3.7 -1.7
v 1.4 2.9 -2.4
v 1.4 3 -2.4
v 1.4 3.6 -2.4
v 1.4 3.7 -2.4
v 1.9 3.1 -2.4
v 1.9 3.4 -2.4
v 2 3 -2.4
v 2 3.1 -2.4
v 2 3.4 -2.4
v 2 3.6 -2.4
v 2.1 2.9 -2.4
v 2.1 3.7 -2.4
v 1.4 2.9 -1.7
v 2.1 2.9 -1.7
v 1.4 2.9 -2.4
v 2.1 2.9 -2.4
v 1.4 3.7 -1.7
v 2.1 3.7 -1.7
v 1.4 3.7 -2.4
v 2.1 3.7 -2.4

# faces
f 3/6/1 2/6/1 1/6/1
f 4/6/1 2/6/1 3/6/1
f 5/2/1 4/2/1 3/2/1
f 6/2/1 4/2/1 5/2/1
f 7/2/1 4/2/1 6/2/1
f 8/2/1 4/2/1 7/2/1
f 9/2/1 5/2/1 3/2/1
f 9/3/1 6/3/1 5/3/1
f 10/5/1 7/5/1 6/5/1
f 10/3/1 6/3/1 9/3/1
f 11/3/1 8/3/1 7/3/1
f 11/5/1 7/5/1 10/5/1
f 12/2/1 4/2/1 8/2/1
f 12/3/1 8/3/1 11/3/1
f 13/2/1 11/2/1 10/2/1
f 13/2/1 10/2/1 9/2/1
f 13/2/1 12/2/1 11/2/1
f 13/2/1 9/2/1 3/2/1
f 14/2/1 4/2/1 12/2/1
f 14/2/1 12/2/1 13/2/1
f 15/6/1 14/6/1 13/6/1
f 16/6/1 14/6/1 15/6/1
f 17/6/2 18/6/2 19/6/2
f 19/6/2 18/6/2 20/6/2
f 25/2/3 23/2/3 22/2/3
f 26/2/3 23/2/3 25/2/3
f 27/6/3 22/6/3 21/6/3
f 27/2/3 25/2/3 22/2/3
f 28/5/3 26/5/3 25/5/3
f 28/2/3 25/2/3 27/2/3
f 29/2/3 23/2/3 26/2/3
f 29/5/3 26/5/3 28/5/3
f 30/6/3 24/6/3 23/6/3
f 30/2/3 23/2/3 29/2/3
f 31/6/3 28/6/3 27/6/3
f 31/6/3 29/6/3 28/6/3
f 31/6/3 30/6/3 29/6/3
f 31/6/3 27/6/3 21/6/3
f 32/6/3 24/6/3 30/6/3
f 32/6/3 30/6/3 31/6/3
f 34/2/4 35/2/4 37/2/4
f 37/2/4 35/2/4 38/2/4
f 33/6/4 34/6/4 39/6/4
f 34/2/4 37/2/4 39/2/4
f 37/5/4 38/5/4 40/5/4
f 39/2/4 37/2/4 40/2/4
f 38/2/4 35/2/4 41/2/4
f 40/5/4 38/5/4 41/5/4
f 35/6/4 36/6/4 42/6/4
f 41/2/4 35/2/4 42/2/4
f 39/6/4 40/6/4 43/6/4
f 40/6/4 41/6/4 43/6/4
f 41/6/4 42/6/4 43/6/4
f 33/6/4 39/6/4 43/6/4
f 42/6/4 36/6/4 44/6/4
f 43/6/4 42/6/4 44/6/4
f 47/6/5 46/6/5 45/6/5
f 48/6/5 46/6/5 47/6/5
f 49/6/6 50/6/6 51/6/6
f 51/6/6 50/6/6 52/6/6
