# MagicaVoxel @ Ephtracy

# group
o 

# material
mtllib cabinet4.mtl
usemtl palette

# normals
vn -1 0 0
vn 1 0 0
vn 0 0 1
vn 0 0 -1
vn 0 -1 0
vn 0 1 0

# texcoords
vt 0.00976563 0.5
vt 0.974609 0.5
vt 0.978516 0.5
vt 0.982422 0.5
vt 0.986328 0.5
vt 0.990234 0.5
vt 0.994141 0.5

# verts
v 0.6 2 -1.2
v 0.6 2 -2.1
v 0.6 2 -2.9
v 0.6 2.6 -1.3
v 0.6 2.6 -1.4
v 0.6 2.7 -1.3
v 0.6 2.7 -1.4
v 0.6 2.8 -1.2
v 0.6 2.8 -2
v 0.6 4.5 -2
v 0.6 4.5 -2.1
v 0.6 4.5 -2.9
v 1.5 2.8 -1.2
v 1.5 2.8 -2
v 1.5 2.9 -2
v 1.5 3.6 -1.2
v 1.5 3.6 -2
v 2.5 3.6 -1.2
v 2.5 3.6 -2
v 2.5 4.4 -1.2
v 2.5 4.4 -2
v 1.5 2 -1.2
v 1.5 2 -2
v 1.5 2.8 -1.2
v 1.5 2.8 -2
v 2.5 2.8 -1.2
v 2.5 2.8 -2
v 2.5 2.9 -2
v 2.5 3.1 -2
v 2.5 3.2 -2
v 2.5 3.6 -1.2
v 2.5 3.6 -2
v 3.4 2 -2
v 3.4 2 -2.1
v 3.4 2 -2.9
v 3.4 2.8 -2
v 3.4 2.8 -2.1
v 3.4 3.6 -1.2
v 3.4 3.6 -2
v 3.4 3.7 -2
v 3.4 3.7 -2.1
v 3.4 4.4 -1.2
v 3.4 4.4 -2
v 3.4 4.4 -2.1
v 3.4 4.5 -2
v 3.4 4.5 -2.1
v 3.4 4.5 -2.9
v 0.6 2 -1.2
v 0.6 2.8 -1.2
v 1 2.6 -1.2
v 1 2.7 -1.2
v 1.1 2.6 -1.2
v 1.1 2.7 -1.2
v 1.5 2 -1.2
v 1.5 2.8 -1.2
v 1.5 3.6 -1.2
v 2 3.4 -1.2
v 2 3.5 -1.2
v 2.1 3.4 -1.2
v 2.1 3.5 -1.2
v 2.5 2.8 -1.2
v 2.5 3.6 -1.2
v 2.5 4.4 -1.2
v 2.9 4.2 -1.2
v 2.9 4.3 -1.2
v 3 4.2 -1.2
v 3 4.3 -1.2
v 3.4 3.6 -1.2
v 3.4 4.4 -1.2
v 0.6 2.8 -2
v 0.6 4.5 -2
v 0.7 2.9 -2
v 0.7 4.4 -2
v 1.3 3.5 -2
v 1.3 3.9 -2
v 1.4 3.5 -2
v 1.4 3.9 -2
v 1.5 2 -2
v 1.5 2.8 -2
v 1.5 2.9 -2
v 1.5 3.6 -2
v 1.5 4.4 -2
v 1.6 2 -2
v 1.6 2.8 -2
v 1.6 3.7 -2
v 1.6 3.8 -2
v 1.6 3.9 -2
v 1.6 4 -2
v 1.6 4.1 -2
v 1.6 4.4 -2
v 1.9 2 -2
v 1.9 2.8 -2
v 2 2 -2
v 2 2.2 -2
v 2 2.6 -2
v 2 2.8 -2
v 2.1 2.2 -2
v 2.1 2.6 -2
v 2.3 3.7 -2
v 2.3 3.8 -2
v 2.3 3.9 -2
v 2.3 4 -2
v 2.3 4.1 -2
v 2.4 2 -2
v 2.4 2.8 -2
v 2.4 3.7 -2
v 2.4 3.9 -2
v 2.4 4 -2
v 2.4 4.4 -2
v 2.5 2 -2
v 2.5 2.8 -2
v 2.5 2.9 -2
v 2.5 3.1 -2
v 2.5 3.2 -2
v 2.5 3.6 -2
v 2.5 4.4 -2
v 2.8 2.9 -2
v 2.8 3.1 -2
v 2.8 3.2 -2
v 2.8 3.4 -2
v 2.9 2 -2
v 2.9 2.8 -2
v 2.9 2.9 -2
v 2.9 3.1 -2
v 2.9 3.2 -2
v 2.9 3.4 -2
v 3 2 -2
v 3 2.2 -2
v 3 2.6 -2
v 3 2.8 -2
v 3 2.9 -2
v 3 3.1 -2
v 3 3.2 -2
v 3 3.4 -2
v 3 3.5 -2
v 3.1 2.2 -2
v 3.1 2.6 -2
v 3.1 2.9 -2
v 3.1 3.1 -2
v 3.1 3.2 -2
v 3.1 3.5 -2
v 3.2 2.9 -2
v 3.2 3.1 -2
v 3.2 3.2 -2
v 3.2 3.5 -2
v 3.3 2.9 -2
v 3.3 3.1 -2
v 3.3 3.2 -2
v 3.3 3.5 -2
v 3.3 3.6 -2
v 3.4 2 -2
v 3.4 2.8 -2
v 3.4 3.6 -2
v 3.4 4.4 -2
v 3.4 4.5 -2
v 0.6 2 -2.9
v 0.6 4.5 -2.9
v 3.4 2 -2.9
v 3.4 4.5 -2.9
v 0.6 2 -1.2
v 1.5 2 -1.2
v 1.5 2 -2
v 1.6 2 -2
v 1.9 2 -2
v 2 2 -2
v 2.4 2 -2
v 2.5 2 -2
v 2.9 2 -2
v 3 2 -2
v 3.4 2 -2
v 0.6 2 -2.1
v 1.6 2 -2.1
v 1.9 2 -2.1
v 2 2 -2.1
v 2.4 2 -2.1
v 2.5 2 -2.1
v 2.9 2 -2.1
v 3 2 -2.1
v 3.4 2 -2.1
v 0.6 2 -2.9
v 3.4 2 -2.9
v 1.5 2.8 -1.2
v 2.5 2.8 -1.2
v 1.5 2.8 -2
v 1.6 2.8 -2
v 1.9 2.8 -2
v 2 2.8 -2
v 2.4 2.8 -2
v 2.5 2.8 -2
v 2.5 3.6 -1.2
v 3.4 3.6 -1.2
v 2.5 3.6 -2
v 3.3 3.6 -2
v 3.4 3.6 -2
v 0.6 2.8 -1.2
v 1.5 2.8 -1.2
v 0.7 2.8 -1.3
v 1.4 2.8 -1.3
v 0.7 2.8 -1.4
v 1.4 2.8 -1.4
v 0.7 2.8 -1.5
v 1.4 2.8 -1.5
v 0.7 2.8 -1.6
v 1.4 2.8 -1.6
v 0.7 2.8 -1.7
v 1.4 2.8 -1.7
v 0.7 2.8 -1.8
v 1.4 2.8 -1.8
v 0.7 2.8 -1.9
v 1.4 2.8 -1.9
v 0.6 2.8 -2
v 1.5 2.8 -2
v 1.5 3.6 -1.2
v 2.5 3.6 -1.2
v 1.6 3.6 -1.4
v 2.4 3.6 -1.4
v 1.6 3.6 -1.5
v 2.4 3.6 -1.5
v 1.6 3.6 -1.6
v 2.4 3.6 -1.6
v 1.6 3.6 -1.7
v 2.4 3.6 -1.7
v 1.6 3.6 -1.8
v 2.4 3.6 -1.8
v 1.6 3.6 -1.9
v 2.4 3.6 -1.9
v 1.5 3.6 -2
v 2.5 3.6 -2
v 2.5 4.4 -1.2
v 3.4 4.4 -1.2
v 2.6 4.4 -1.4
v 3.3 4.4 -1.4
v 2.6 4.4 -1.5
v 3.3 4.4 -1.5
v 2.6 4.4 -1.6
v 3.3 4.4 -1.6
v 2.6 4.4 -1.7
v 3.3 4.4 -1.7
v 2.6 4.4 -1.8
v 3.3 4.4 -1.8
v 2.6 4.4 -1.9
v 3.3 4.4 -1.9
v 2.5 4.4 -2
v 3.4 4.4 -2
v 0.6 4.5 -2
v 3.4 4.5 -2
v 0.6 4.5 -2.1
v 3.4 4.5 -2.1
v 0.6 4.5 -2.9
v 3.4 4.5 -2.9

# faces
f 4/7/1 2/7/1 1/7/1
f 5/7/1 2/7/1 4/7/1
f 6/7/1 4/7/1 1/7/1
f 6/6/1 5/6/1 4/6/1
f 7/7/1 2/7/1 5/7/1
f 7/6/1 5/6/1 6/6/1
f 8/7/1 6/7/1 1/7/1
f 8/7/1 7/7/1 6/7/1
f 9/7/1 2/7/1 7/7/1
f 9/7/1 7/7/1 8/7/1
f 10/7/1 2/7/1 9/7/1
f 11/4/1 3/4/1 2/4/1
f 11/7/1 2/7/1 10/7/1
f 12/4/1 3/4/1 11/4/1
f 15/7/1 14/7/1 13/7/1
f 16/7/1 15/7/1 13/7/1
f 17/7/1 15/7/1 16/7/1
f 20/7/1 19/7/1 18/7/1
f 21/7/1 19/7/1 20/7/1
f 22/7/2 23/7/2 24/7/2
f 24/7/2 23/7/2 25/7/2
f 26/7/2 27/7/2 28/7/2
f 26/7/2 28/7/2 29/7/2
f 26/7/2 29/7/2 30/7/2
f 26/7/2 30/7/2 31/7/2
f 31/7/2 30/7/2 32/7/2
f 33/6/2 34/6/2 36/6/2
f 34/4/2 35/4/2 37/4/2
f 36/6/2 34/6/2 37/6/2
f 36/7/2 37/7/2 39/7/2
f 39/7/2 37/7/2 40/7/2
f 38/7/2 39/7/2 40/7/2
f 37/4/2 35/4/2 41/4/2
f 40/7/2 37/7/2 41/7/2
f 38/7/2 40/7/2 42/7/2
f 40/6/2 41/6/2 43/6/2
f 42/7/2 40/7/2 43/7/2
f 41/4/2 35/4/2 44/4/2
f 43/6/2 41/6/2 44/6/2
f 43/7/2 44/7/2 45/7/2
f 44/4/2 35/4/2 46/4/2
f 45/7/2 44/7/2 46/7/2
f 46/4/2 35/4/2 47/4/2
f 50/7/3 49/7/3 48/7/3
f 51/7/3 49/7/3 50/7/3
f 52/7/3 50/7/3 48/7/3
f 52/1/3 51/1/3 50/1/3
f 53/7/3 49/7/3 51/7/3
f 53/1/3 51/1/3 52/1/3
f 54/7/3 52/7/3 48/7/3
f 54/7/3 53/7/3 52/7/3
f 55/7/3 49/7/3 53/7/3
f 55/7/3 53/7/3 54/7/3
f 57/7/3 56/7/3 55/7/3
f 58/7/3 56/7/3 57/7/3
f 59/7/3 57/7/3 55/7/3
f 59/1/3 58/1/3 57/1/3
f 60/7/3 56/7/3 58/7/3
f 60/1/3 58/1/3 59/1/3
f 61/7/3 59/7/3 55/7/3
f 61/7/3 60/7/3 59/7/3
f 62/7/3 56/7/3 60/7/3
f 62/7/3 60/7/3 61/7/3
f 64/7/3 63/7/3 62/7/3
f 65/7/3 63/7/3 64/7/3
f 66/7/3 64/7/3 62/7/3
f 66/1/3 65/1/3 64/1/3
f 67/7/3 63/7/3 65/7/3
f 67/1/3 65/1/3 66/1/3
f 68/7/3 66/7/3 62/7/3
f 68/7/3 67/7/3 66/7/3
f 69/7/3 63/7/3 67/7/3
f 69/7/3 67/7/3 68/7/3
f 72/7/3 71/7/3 70/7/3
f 73/7/3 71/7/3 72/7/3
f 74/6/3 73/6/3 72/6/3
f 75/6/3 73/6/3 74/6/3
f 76/6/3 74/6/3 72/6/3
f 76/7/3 75/7/3 74/7/3
f 77/6/3 73/6/3 75/6/3
f 77/7/3 75/7/3 76/7/3
f 79/7/3 72/7/3 70/7/3
f 80/6/3 76/6/3 72/6/3
f 80/6/3 77/6/3 76/6/3
f 80/7/3 72/7/3 79/7/3
f 81/6/3 77/6/3 80/6/3
f 82/6/3 73/6/3 77/6/3
f 82/6/3 77/6/3 81/6/3
f 82/7/3 71/7/3 73/7/3
f 83/7/3 79/7/3 78/7/3
f 84/7/3 79/7/3 83/7/3
f 85/7/3 82/7/3 81/7/3
f 86/7/3 82/7/3 85/7/3
f 87/7/3 82/7/3 86/7/3
f 88/7/3 82/7/3 87/7/3
f 89/7/3 82/7/3 88/7/3
f 90/7/3 71/7/3 82/7/3
f 90/7/3 82/7/3 89/7/3
f 91/6/3 84/6/3 83/6/3
f 92/6/3 84/6/3 91/6/3
f 93/7/3 92/7/3 91/7/3
f 94/7/3 92/7/3 93/7/3
f 95/7/3 92/7/3 94/7/3
f 96/7/3 92/7/3 95/7/3
f 97/6/3 94/6/3 93/6/3
f 97/7/3 95/7/3 94/7/3
f 98/6/3 96/6/3 95/6/3
f 98/7/3 95/7/3 97/7/3
f 99/7/3 85/7/3 81/7/3
f 99/3/3 86/3/3 85/3/3
f 100/4/3 87/4/3 86/4/3
f 100/3/3 86/3/3 99/3/3
f 101/7/3 88/7/3 87/7/3
f 101/4/3 87/4/3 100/4/3
f 102/4/3 89/4/3 88/4/3
f 102/7/3 88/7/3 101/7/3
f 103/6/3 90/6/3 89/6/3
f 103/4/3 89/4/3 102/4/3
f 104/6/3 98/6/3 97/6/3
f 104/6/3 97/6/3 93/6/3
f 105/6/3 96/6/3 98/6/3
f 105/6/3 98/6/3 104/6/3
f 106/6/3 101/6/3 100/6/3
f 106/7/3 99/7/3 81/7/3
f 106/6/3 100/6/3 99/6/3
f 107/7/3 102/7/3 101/7/3
f 107/6/3 101/6/3 106/6/3
f 108/6/3 103/6/3 102/6/3
f 108/7/3 102/7/3 107/7/3
f 109/7/3 71/7/3 90/7/3
f 109/6/3 103/6/3 108/6/3
f 109/6/3 90/6/3 103/6/3
f 110/7/3 105/7/3 104/7/3
f 111/7/3 105/7/3 110/7/3
f 115/7/3 108/7/3 107/7/3
f 115/7/3 107/7/3 106/7/3
f 115/7/3 106/7/3 81/7/3
f 115/7/3 109/7/3 108/7/3
f 116/7/3 71/7/3 109/7/3
f 116/7/3 109/7/3 115/7/3
f 117/6/3 113/6/3 112/6/3
f 117/7/3 112/7/3 111/7/3
f 118/7/3 114/7/3 113/7/3
f 118/6/3 113/6/3 117/6/3
f 119/6/3 115/6/3 114/6/3
f 119/7/3 114/7/3 118/7/3
f 120/6/3 115/6/3 119/6/3
f 121/6/3 111/6/3 110/6/3
f 122/7/3 117/7/3 111/7/3
f 122/6/3 111/6/3 121/6/3
f 123/4/3 118/4/3 117/4/3
f 123/7/3 117/7/3 122/7/3
f 124/7/3 119/7/3 118/7/3
f 124/4/3 118/4/3 123/4/3
f 125/4/3 120/4/3 119/4/3
f 125/7/3 119/7/3 124/7/3
f 126/6/3 115/6/3 120/6/3
f 126/4/3 120/4/3 125/4/3
f 127/7/3 122/7/3 121/7/3
f 127/7/3 123/7/3 122/7/3
f 128/7/3 123/7/3 127/7/3
f 129/7/3 123/7/3 128/7/3
f 130/7/3 123/7/3 129/7/3
f 131/3/3 124/3/3 123/3/3
f 131/7/3 123/7/3 130/7/3
f 132/7/3 125/7/3 124/7/3
f 132/3/3 124/3/3 131/3/3
f 133/3/3 126/3/3 125/3/3
f 133/7/3 125/7/3 132/7/3
f 134/6/3 115/6/3 126/6/3
f 134/3/3 126/3/3 133/3/3
f 135/6/3 115/6/3 134/6/3
f 136/6/3 128/6/3 127/6/3
f 136/7/3 129/7/3 128/7/3
f 137/6/3 130/6/3 129/6/3
f 137/7/3 129/7/3 136/7/3
f 138/7/3 131/7/3 130/7/3
f 138/2/3 132/2/3 131/2/3
f 139/7/3 133/7/3 132/7/3
f 139/2/3 132/2/3 138/2/3
f 140/2/3 135/2/3 134/2/3
f 140/7/3 133/7/3 139/7/3
f 140/2/3 134/2/3 133/2/3
f 141/6/3 115/6/3 135/6/3
f 141/2/3 135/2/3 140/2/3
f 142/7/3 138/7/3 130/7/3
f 142/4/3 139/4/3 138/4/3
f 143/7/3 140/7/3 139/7/3
f 143/4/3 139/4/3 142/4/3
f 144/4/3 141/4/3 140/4/3
f 144/7/3 140/7/3 143/7/3
f 145/6/3 115/6/3 141/6/3
f 145/4/3 141/4/3 144/4/3
f 146/7/3 142/7/3 130/7/3
f 146/3/3 143/3/3 142/3/3
f 147/7/3 144/7/3 143/7/3
f 147/3/3 143/3/3 146/3/3
f 148/3/3 145/3/3 144/3/3
f 148/7/3 144/7/3 147/7/3
f 149/6/3 115/6/3 145/6/3
f 149/3/3 145/3/3 148/3/3
f 150/6/3 115/6/3 149/6/3
f 151/6/3 137/6/3 136/6/3
f 151/6/3 136/6/3 127/6/3
f 152/7/3 146/7/3 130/7/3
f 152/6/3 137/6/3 151/6/3
f 152/6/3 130/6/3 137/6/3
f 152/7/3 149/7/3 148/7/3
f 152/7/3 147/7/3 146/7/3
f 152/7/3 148/7/3 147/7/3
f 152/7/3 150/7/3 149/7/3
f 153/7/3 150/7/3 152/7/3
f 154/7/3 71/7/3 116/7/3
f 155/7/3 71/7/3 154/7/3
f 156/4/4 157/4/4 158/4/4
f 158/4/4 157/4/4 159/4/4
f 162/7/5 161/7/5 160/7/5
f 171/7/5 162/7/5 160/7/5
f 171/7/5 163/7/5 162/7/5
f 172/6/5 164/6/5 163/6/5
f 172/7/5 163/7/5 171/7/5
f 173/7/5 165/7/5 164/7/5
f 173/6/5 164/6/5 172/6/5
f 174/6/5 166/6/5 165/6/5
f 174/7/5 165/7/5 173/7/5
f 175/7/5 167/7/5 166/7/5
f 175/6/5 166/6/5 174/6/5
f 176/6/5 168/6/5 167/6/5
f 176/7/5 167/7/5 175/7/5
f 177/7/5 169/7/5 168/7/5
f 177/6/5 168/6/5 176/6/5
f 178/6/5 170/6/5 169/6/5
f 178/7/5 169/7/5 177/7/5
f 179/6/5 170/6/5 178/6/5
f 180/4/5 177/4/5 176/4/5
f 180/4/5 176/4/5 175/4/5
f 180/4/5 179/4/5 178/4/5
f 180/4/5 178/4/5 177/4/5
f 180/4/5 175/4/5 174/4/5
f 180/4/5 174/4/5 173/4/5
f 180/4/5 173/4/5 172/4/5
f 180/4/5 172/4/5 171/4/5
f 181/4/5 179/4/5 180/4/5
f 184/7/5 183/7/5 182/7/5
f 185/7/5 183/7/5 184/7/5
f 186/7/5 183/7/5 185/7/5
f 187/7/5 183/7/5 186/7/5
f 188/7/5 183/7/5 187/7/5
f 189/7/5 183/7/5 188/7/5
f 192/7/5 191/7/5 190/7/5
f 193/7/5 191/7/5 192/7/5
f 194/7/5 191/7/5 193/7/5
f 195/7/6 196/7/6 197/7/6
f 197/7/6 196/7/6 198/7/6
f 195/7/6 197/7/6 199/7/6
f 197/6/6 198/6/6 199/6/6
f 198/7/6 196/7/6 200/7/6
f 199/6/6 198/6/6 200/6/6
f 195/7/6 199/7/6 201/7/6
f 199/5/6 200/5/6 201/5/6
f 200/7/6 196/7/6 202/7/6
f 201/5/6 200/5/6 202/5/6
f 195/7/6 201/7/6 203/7/6
f 201/6/6 202/6/6 203/6/6
f 202/7/6 196/7/6 204/7/6
f 203/6/6 202/6/6 204/6/6
f 195/7/6 203/7/6 205/7/6
f 203/5/6 204/5/6 205/5/6
f 204/7/6 196/7/6 206/7/6
f 205/5/6 204/5/6 206/5/6
f 195/7/6 205/7/6 207/7/6
f 205/6/6 206/6/6 207/6/6
f 206/7/6 196/7/6 208/7/6
f 207/6/6 206/6/6 208/6/6
f 195/7/6 207/7/6 209/7/6
f 207/5/6 208/5/6 209/5/6
f 208/7/6 196/7/6 210/7/6
f 209/5/6 208/5/6 210/5/6
f 195/7/6 209/7/6 211/7/6
f 209/7/6 210/7/6 211/7/6
f 210/7/6 196/7/6 212/7/6
f 211/7/6 210/7/6 212/7/6
f 213/7/6 214/7/6 215/7/6
f 215/7/6 214/7/6 216/7/6
f 213/7/6 215/7/6 217/7/6
f 215/5/6 216/5/6 217/5/6
f 216/7/6 214/7/6 218/7/6
f 217/5/6 216/5/6 218/5/6
f 213/7/6 217/7/6 219/7/6
f 217/6/6 218/6/6 219/6/6
f 218/7/6 214/7/6 220/7/6
f 219/6/6 218/6/6 220/6/6
f 213/7/6 219/7/6 221/7/6
f 219/5/6 220/5/6 221/5/6
f 220/7/6 214/7/6 222/7/6
f 221/5/6 220/5/6 222/5/6
f 213/7/6 221/7/6 223/7/6
f 221/6/6 222/6/6 223/6/6
f 222/7/6 214/7/6 224/7/6
f 223/6/6 222/6/6 224/6/6
f 213/7/6 223/7/6 225/7/6
f 223/5/6 224/5/6 225/5/6
f 224/7/6 214/7/6 226/7/6
f 225/5/6 224/5/6 226/5/6
f 213/7/6 225/7/6 227/7/6
f 225/7/6 226/7/6 227/7/6
f 226/7/6 214/7/6 228/7/6
f 227/7/6 226/7/6 228/7/6
f 229/7/6 230/7/6 231/7/6
f 231/7/6 230/7/6 232/7/6
f 229/7/6 231/7/6 233/7/6
f 231/5/6 232/5/6 233/5/6
f 232/7/6 230/7/6 234/7/6
f 233/5/6 232/5/6 234/5/6
f 229/7/6 233/7/6 235/7/6
f 233/6/6 234/6/6 235/6/6
f 234/7/6 230/7/6 236/7/6
f 235/6/6 234/6/6 236/6/6
f 229/7/6 235/7/6 237/7/6
f 235/5/6 236/5/6 237/5/6
f 236/7/6 230/7/6 238/7/6
f 237/5/6 236/5/6 238/5/6
f 229/7/6 237/7/6 239/7/6
f 237/6/6 238/6/6 239/6/6
f 238/7/6 230/7/6 240/7/6
f 239/6/6 238/6/6 240/6/6
f 229/7/6 239/7/6 241/7/6
f 239/5/6 240/5/6 241/5/6
f 240/7/6 230/7/6 242/7/6
f 241/5/6 240/5/6 242/5/6
f 229/7/6 241/7/6 243/7/6
f 241/7/6 242/7/6 243/7/6
f 242/7/6 230/7/6 244/7/6
f 243/7/6 242/7/6 244/7/6
f 245/7/6 246/7/6 247/7/6
f 247/7/6 246/7/6 248/7/6
f 247/4/6 248/4/6 249/4/6
f 249/4/6 248/4/6 250/4/6
